<svg xmlns="http://www.w3.org/2000/svg" viewBox="0 0 622.28 137.53"><path fill="#578556" d="M612.87 11.26c-2.33-4-2.1-5.69-2.84-8.23-.56-1.95-2.59-.42-4.89.39-12.93 4.59-47.6 9.27-66.61 36.94 0 0-3.64-30.95-41.62-37.12-6.8-1.11-8.44-4-10.46-3.06-1.32.6-.83 3.51-4.5 8.55-6.63 9.13-20.09 29.73-15.51 55.43 6.28 35.33 30.93 28 33 46.77 0 0 1.25 1.83.69-4.35-.92-10-8.95-12.37-19.07-23.56-11.89-13.14-14.53-48.65 7.5-74.79 1.26-1.7 1.54-1.38 3.37-1.19 20.68 1.94 39.47 11.51 42.18 40.56 0 0-10.1 16.17-2.54 33.9a15.08 15.08 0 0 1-6.37 11.88c-5.53 4.2-9.39 5.54-13.3 10.49-.64.8-.93.38 0-2.3 4.92-22.31 2.57-28 4.26-38.95 1.12-7.37 3.81-8.84.88-21.26-3.88-16.43-5.66-19.11-7.37-22.17-1.17-2.08-2.32-1.65-2.32-1.65s-1.46.09-.37 2.64c5.54 13 5.25 21 5.25 21s.14 2.28-1 2.61c-2 .55-2.39-1.83-2.39-1.83a87.2 87.2 0 0 0-5.38-19.95c-.37-1-.93-3.12-2.57-2.76s-.62 3.23-.62 3.23a95.5 95.5 0 0 1 4.65 20.11c.34 2.65-1.08 3-1.08 3-1.58.36-1.92-1.55-1.92-1.55a96.18 96.18 0 0 0-5.69-20.72c-.18-.34-.94-2.63-2.43-2.22s-.68 2.48-.68 2.48a176.41 176.41 0 0 1 5 21.68c.15 1.48-.52 2.06-1 2.19-1.65.41-2.53-1.45-2.53-1.45s-3.11-13.9-5.84-21.44c-.89-2.44-1.67-2.1-1.67-2.1s-1.63.12-1.08 2.68c2.71 12.64 4 23.6 4.47 25.35 2.29 8.63 7.24 11.7 9.61 14.12 13 13.28 3.84 43.13 3.84 43.13-5.68 22.91-11.37 27-9.06 29.49s8.27-11.43 11.74-18.36 5.14-12.91 14.61-18c13.1-7 13.2-13.54 13.2-13.54 4.86 6.58 2.07 16.08 2.76 17.81.42 1.06 1.49-3.85 1.91-5.84 1.76-8.45-.49-12.1-.49-12.1-14.45-27.05 10.15-53.48 29-64.82 17.25-10.36 32.77-12.76 37.15-13.89 1-.26 1.52 1 2.83 3.42 21.45 39-3.83 78.89-20.1 86.27-16.75 7.61-28.29 1.05-43.19 13.87-1.73 1.48 1-4.06 1-4.06 11-24 17.25-28.31 17.25-28.31s.86-1.15 5.11-1c6.83.24 11.56-7.52 11.56-7.52 9.35-13.57 18-43.6 18.89-49s-3.75-2-3.75-2c-35.68 26.9-50.9 76.87-62.7 107-3.4 8.66.81 8 3.07 3.88 2.37-4.3 8-20 25.13-23 15.56-2.73 26.92-1.63 38.65-11 31.25-25.05 26.8-64.47 14.38-85.78zM439.51 49.27h-5.77a.21.21 0 0 0-.11 0 .14.14 0 0 0 0 .1v.88a.13.13 0 0 0 0 .1.22.22 0 0 0 .11 0h2.27v6.34a.15.15 0 0 0 .15.15h1a.14.14 0 0 0 .1 0 .16.16 0 0 0 .05-.11v-6.29h2.27a.16.16 0 0 0 .11 0 .14.14 0 0 0 .05-.1v-.88a.15.15 0 0 0-.16-.14zm9.5.04a.15.15 0 0 0-.1 0h-1.32l-.14.09-2.2 5.13c-.09.29-.18.53-.25.74-.05-.19-.12-.4-.2-.65l-2.18-5.22-.14-.09h-1.47a.21.21 0 0 0-.1 0 .16.16 0 0 0-.05.1v7.37a.16.16 0 0 0 .05.11.14.14 0 0 0 .1 0h.94a.14.14 0 0 0 .11 0 .16.16 0 0 0 .05-.11v-5.37l2.27 5.42.14.1h.87l.14-.1 2.29-5.34v5.29a.2.2 0 0 0 0 .11.15.15 0 0 0 .11 0h.95a.12.12 0 0 0 .1 0 .15.15 0 0 0 0-.11v-7.37a.14.14 0 0 0 .03-.1zm-71.38 7.41v-.1a.11.11 0 0 1 0-.06.09.09 0 0 1 0-.05 29.2 29.2 0 0 0-49.86 20.66v28a1.31 1.31 0 0 0 .36.88 1.29 1.29 0 0 0 .87.35h6.43a1.24 1.24 0 0 0 .86-.36 1.23 1.23 0 0 0 .36-.87V76.72a20.32 20.32 0 0 1 34.69-14.37 1.24 1.24 0 0 0 1.74 0l4.58-4.7a1.18 1.18 0 0 0 .27-.52v-.12l-.3-.29zm-89.68-9.36a29.21 29.21 0 1 0 20.32 50.2v7a1.26 1.26 0 0 0 .35.87 1.24 1.24 0 0 0 .86.36h6.46a1.28 1.28 0 0 0 .86-.36 1.26 1.26 0 0 0 .35-.87v-28a29.21 29.21 0 0 0-29.2-29.2zm0 49.67a20.32 20.32 0 1 1 20.32-20.31 20.34 20.34 0 0 1-20.32 20.31zm-32.69-48.31h-7a1.2 1.2 0 0 0-1.12.74l-14.6 34.62-15.34-34.62a1.22 1.22 0 0 0-1.11-.71 1.2 1.2 0 0 0-1.11.71l-15.31 34.65-14.59-34.62a1.23 1.23 0 0 0-1.12-.74h-7a1.22 1.22 0 0 0-1 .54 1.21 1.21 0 0 0-.1 1.15l22.67 53.28a1.2 1.2 0 0 0 1.1.73 1.18 1.18 0 0 0 1.11-.73l15.34-34.25 15.36 34.25a1.19 1.19 0 0 0 1.11.72 1.2 1.2 0 0 0 1.11-.74l22.71-53.23a1.21 1.21 0 0 0-1.11-1.75zm-110.93-1.36a29.21 29.21 0 1 0 20.31 50.2v2.83a20.32 20.32 0 0 1-34.7 14.33 1.17 1.17 0 0 0-.86-.37 1.16 1.16 0 0 0-.86.37l-4.48 4.55a1.2 1.2 0 0 0 0 1.71 29.18 29.18 0 0 0 49.77-20.58V76.58a29.22 29.22 0 0 0-29.18-29.22zm20.31 29.36a20.32 20.32 0 1 1-20.31-20.32 20.36 20.36 0 0 1 20.31 20.32zM81.83 47.36a29.21 29.21 0 1 0 20.62 49.88 1.27 1.27 0 0 0 .36-.88 1.21 1.21 0 0 0-.37-.85l-4.56-4.45a1.22 1.22 0 0 0-1.72 0 20.26 20.26 0 0 1-14.36 6c-10.82 0-19-7.29-20.07-17.23h45a1.22 1.22 0 0 0 1.16-.86v-.06a1.16 1.16 0 0 0 .08-.42c.01-16.17-10.02-31.13-26.14-31.13zM62.19 71.81c2.62-8.98 8.62-16.09 18.93-16.09 10.1 0 15 8.36 16.8 16.11zM407.3 47.36a29.21 29.21 0 1 0 20.63 49.88 1.27 1.27 0 0 0 .36-.88 1.21 1.21 0 0 0-.37-.85l-4.57-4.45a1.2 1.2 0 0 0-1.71 0 20.28 20.28 0 0 1-14.36 6c-10.83 0-19-7.29-20.07-17.23h45a1.22 1.22 0 0 0 1.16-.86v-.06a1.16 1.16 0 0 0 .08-.42c.01-16.17-10.02-31.13-26.15-31.13zm-19.63 24.45c2.61-9 8.63-16.11 18.93-16.11 10.1 0 14.95 8.36 16.8 16.11zM50.28 48.72h-7.23a1.21 1.21 0 0 0-1.1.7L25.74 84.57 9.57 49.45a1.23 1.23 0 0 0-1.1-.7H1.21a1.22 1.22 0 0 0-1 .56 1.18 1.18 0 0 0-.07 1.15l24.52 53.26a1.19 1.19 0 0 0 1.1.7 1.21 1.21 0 0 0 1.1-.7l24.53-53.26a1.21 1.21 0 0 0-.08-1.15 1.23 1.23 0 0 0-1.03-.59z"/></svg>
