<?xml version="1.0" encoding="utf-8"?>
<!-- Generator: Adobe Illustrator 28.2.0, SVG Export Plug-In . SVG Version: 6.00 Build 0)  -->
<svg version="1.1" id="Layer_1" xmlns="http://www.w3.org/2000/svg" xmlns:xlink="http://www.w3.org/1999/xlink" x="0px" y="0px"
	 viewBox="0 0 476.22 272.13" enable-background="new 0 0 476.22 272.13" xml:space="preserve">
<g>
	<g>
		<path fill="#EEEADF" d="M383.4,216.62c0-5.47,0-10.93,0-16.4c0-6.22,0.04-12.44-0.02-18.65c-0.01-1.28,0.54-1.51,1.62-1.59
			c4.3-0.33,8.61-0.59,12.89-1.14c1.06-0.14,2.14-0.08,3.2-0.27c0.77-0.14,1.16,0.15,1.16,1.04c-0.02,4.94,0.02,9.88,0.01,14.81
			c0,5.58,0,11.16-0.05,16.75c-0.01,0.94,0.27,1.25,1.22,1.21c4.86-0.2,9.72-0.35,14.58-0.48c0.91-0.02,0.9-0.54,0.9-1.18
			c-0.01-3.07-0.07-6.14,0.03-9.2c0.12-3.77-0.03-7.54,0.06-11.31c0.11-4.18-0.19-8.39-0.07-12.58c0.13-4.41-0.21-8.82,0-13.22
			c0.17-3.5-0.12-6.99-0.05-10.49c0.08-3.95,0.01-7.91,0.02-11.87c0-0.53-0.09-1.02-0.24-1.52c-0.18-0.6-0.52-0.69-1.09-0.6
			c-4.89,0.78-9.78,1.49-14.69,2.13c-4.55,0.6-9.05,1.51-13.58,2.25c-1.56,0.25-3.14,0.4-4.72,0.58c-0.83,0.09-1.19-0.44-1.18-1.16
			c0.06-2.87,0.01-5.73,0.09-8.6c0.08-2.72-0.15-5.45-0.08-8.18c0.07-3.01-0.15-6.02,0.02-9.01c0.21-3.71-0.32-7.4-0.03-11.09
			c0.26-3.36,0.09-6.73,0.06-10.08c-0.08-10.79-0.07-21.59-0.04-32.38c0.01-3.23-0.07-6.47-0.05-9.7c0.01-1.13,0.44-1.69,1.56-2.01
			c5.99-1.74,11.95-3.57,17.92-5.36c9.41-2.82,18.79-5.77,28.29-8.29c2.17-0.58,4.33-1.22,6.47-1.93c0.95-0.32,1.3-0.02,1.29,0.87
			c-0.02,4.23-0.07,8.47-0.08,12.7c0,3.27,0.07,6.54,0.08,9.8c0.01,8.15-0.01,16.3,0.02,24.46c0,1.01-0.31,1.57-1.3,1.79
			c-3.43,0.77-6.85,1.57-10.28,2.34c-1.93,0.43-3.87,0.79-5.79,1.23c-1.46,0.33-1.72,0.17-1.72-1.29
			c-0.01-7.09-0.01-14.19-0.02-21.28c0-1.48-0.12-1.56-1.49-1.2c-4.58,1.2-9.15,2.43-13.75,3.58c-1.09,0.27-1.44,0.74-1.44,1.87
			c0.05,7.07,0.11,14.15-0.01,21.22c-0.1,5.78,0.3,11.56-0.01,17.33c-0.19,3.59,0.25,7.16,0.04,10.73
			c-0.05,0.86,0.18,1.08,1.09,0.91c5.3-0.96,10.63-1.83,15.94-2.77c3.66-0.65,7.31-1.39,10.98-2.05c2.14-0.39,4.29-0.72,6.44-1.03
			c0.73-0.11,1.07,0.23,1.06,1.03c-0.03,3.27,0,6.54,0,9.81c0,7.1,0.13,14.2-0.04,21.3c-0.12,5.01,0.28,10.02,0.02,15.03
			c-0.14,2.72-0.06,5.45-0.08,8.17c-0.03,3.21,0.06,6.44,0.07,9.67c0.03,6.62,0.02,13.23,0.03,19.85c0,3.64,0.2,7.3-0.06,10.92
			c-0.18,2.53-0.06,5.07-0.04,7.57c0.04,4.73-0.01,9.46,0.1,14.19c0.04,1.89-0.15,1.67-1.95,1.84c-1.79,0.17-3.54-0.08-5.31-0.03
			c-2.35,0.06-4.72,0.26-7.1,0.01c-1.34-0.14-2.78-0.02-4.18,0.03c-2.55,0.1-5.11,0.02-7.66,0.03c-1.47,0-2.95,0.06-4.42,0.04
			c-3.74-0.06-7.48,0.06-11.22-0.13c-1.77-0.09-3.58,0.17-5.37,0.12c-2.12-0.05-4.24-0.08-6.37,0c-1.52,0.06-1.7-0.16-1.7-1.72
			c-0.01-5.79,0-11.58,0-17.38C383.41,216.62,383.4,216.62,383.4,216.62z"/>
		<path fill="#EEEADF" d="M311.28,235.72c-5.25,0-10.49-0.02-15.74,0.02c-0.98,0.01-1.42-0.44-1.49-1.3
			c-0.57-6.46-0.94-12.93-1.37-19.4c-0.24-3.64-0.79-7.27-1.08-10.91c-0.14-1.74-0.34-3.47-0.51-5.2c-0.08-0.76-0.35-0.89-1.07-0.82
			c-1.98,0.19-3.96,0.28-5.95,0.42c-2.22,0.16-4.43,0.34-6.65,0.48c-0.67,0.04-0.78,0.51-0.84,0.97c-0.2,1.49-0.37,2.99-0.5,4.48
			c-0.35,4.06-0.66,8.13-0.99,12.19c-0.3,3.8-0.69,7.59-0.98,11.39c-0.17,2.23-0.32,4.5-0.67,6.72c-0.12,0.78-0.57,1-1.24,0.95
			c-2.2-0.17-4.43-0.15-6.61-0.1c-2.64,0.06-5.29-0.14-7.94,0.06c-1.35,0.1-2.72,0-4.07,0.06c-0.79,0.04-0.97-0.32-0.91-1
			c0.18-1.9,0.33-3.8,0.52-5.7c0.29-2.92,0.58-5.85,0.93-8.77c0.44-3.67,0.63-7.37,1.01-11.04c0.5-4.85,0.83-9.71,1.45-14.54
			c0.8-6.17,1.29-12.36,1.88-18.54c0.57-5.95,1.25-11.88,1.85-17.82c0.51-5.07,0.94-10.14,1.44-15.21c0.38-3.9,0.96-7.78,1.18-11.69
			c0.16-2.89,0.57-5.74,0.83-8.62c0.44-4.91,1-9.8,1.48-14.7c0.39-3.95,0.76-7.9,1.12-11.85c0.25-2.73,0.47-5.46,0.74-8.18
			c0.12-1.21,1.27-1.3,2.06-1.49c6.89-1.72,13.61-4,20.43-5.95c3.27-0.94,6.56-1.86,9.79-2.96c0.87-0.3,1.36-0.03,1.44,0.96
			c0.38,4.23,0.74,8.46,1.23,12.67c0.59,5.11,0.76,10.24,1.39,15.37c0.23,2.21,0.37,4.34,0.53,6.52c0.27,3.72,0.7,7.42,0.85,11.14
			c0.16,3.84,0.87,7.61,1.1,11.44c0.3,5.05,0.82,10.09,1.2,15.15c0.38,5.09,1.03,10.15,1.39,15.25c0.35,4.97,1.21,9.9,1.53,14.87
			c0.28,4.25,0.85,8.47,1.13,12.73c0.32,5.02,1.16,10.01,1.51,15.02c0.36,5.2,0.87,10.38,1.31,15.57c0.26,3.05,0.61,6.09,0.94,9.13
			c0.21,1.98,0.01,2.23-1.95,2.23C312.4,235.73,311.84,235.73,311.28,235.72z M288.56,167.03c-0.09-1.16-0.16-2-0.22-2.6
			c-0.28-3.01-0.61-6.01-0.86-9.02c-0.29-3.48-0.48-6.97-0.79-10.45c-0.52-5.9-1.08-11.8-1.66-17.69c-0.2-2.01-0.44-4.02-0.74-6.02
			c-0.05-0.37-0.16-1.05-0.57-1.05c-0.29-0.02-0.4,0.53-0.44,0.85c-0.35,3.31-0.68,6.62-0.98,9.93c-0.29,3.21-0.51,6.42-0.79,9.62
			c-0.36,4.16-0.77,8.31-1.13,12.47c-0.27,3.17-0.39,6.36-0.78,9.51c-0.51,4.09-0.59,8.21-1.15,12.29c-0.13,0.93,0.28,1.24,1.15,1.1
			c2.63-0.42,5.29-0.5,7.93-0.72c1.53-0.13,1.71-0.4,1.52-1.93C288.78,170.96,288.65,168.19,288.56,167.03z"/>
		<path fill="#EEEADF" d="M201.36,138.57c0-10.26,0.02-20.53-0.03-30.79c0-1.08,0.24-1.58,1.35-1.89c5.56-1.56,11.1-3.19,16.63-4.85
			c1-0.3,0.87,0.26,0.87,0.83c0,3.75-0.03,7.51,0.01,11.26c0.04,4.38,0,8.76,0.12,13.15c0.06,2.3-0.04,4.64-0.1,6.96
			c-0.12,4.65-0.03,9.31-0.03,13.96c0,9.42,0,18.84,0,28.26c0,5.3,0.01,10.61,0.01,15.91c0,9.76-0.01,19.53-0.02,29.29
			c0,4.51-0.02,9.03,0.02,13.54c0.01,1.13-0.38,1.56-1.53,1.54c-3.52-0.05-7.06,0.13-10.57-0.09c-1.63-0.1-3.22,0.17-4.85,0.08
			c-1.11-0.07-1.48-0.57-1.74-1.39c-0.65-2.03-1.25-4.07-1.9-6.1c-1.62-5.02-3.06-10.09-4.61-15.13c-1.33-4.32-2.71-8.63-4.04-12.96
			c-1.59-5.16-3.01-10.37-4.75-15.48c-1.66-4.88-2.78-9.93-4.67-14.74c-0.1-0.26-0.15-0.67-0.41-0.73c-0.29-0.06-0.25,0.6-0.26,0.92
			c-0.02,2.48,0.01,4.95-0.01,7.43c-0.07,7.07,0.02,14.13-0.07,21.2c-0.11,8.88,0.04,17.77,0.07,26.65
			c0.01,3.14-0.03,6.29-0.04,9.43c0,0.59-0.27,0.88-0.88,0.87c-1.91-0.05-3.82-0.07-5.72-0.09c-1.87-0.02-3.78,0.03-5.67,0.11
			c-1.73,0.07-3.47-0.19-5.2,0.02c-1,0.12-1.35-0.32-1.35-1.29c0.02-4.42,0.03-8.84,0.01-13.26c-0.02-3.47-0.12-6.94-0.12-10.41
			c0.01-5.01,0.12-10.02,0.11-15.03c-0.01-3.95-0.24-7.91-0.16-11.86c0.07-3.34,0.03-6.68,0.04-10.01c0.01-2.9,0.14-5.82-0.04-8.74
			c-0.24-3.88-0.07-7.78-0.07-11.67c0-5.36-0.06-10.72,0.03-16.08c0.08-4.85-0.21-9.71,0.16-14.56c0.09-1.17-0.05-2.36-0.18-3.53
			c-0.1-0.93,0.24-1.36,1.13-1.62c5.31-1.57,10.61-3.17,15.91-4.79c2.47-0.76,2.47-0.8,3.22,1.64c1.62,5.3,3.52,10.51,5.21,15.79
			c1.67,5.23,3.46,10.42,5.14,15.65c2.51,7.81,5.25,15.56,7.92,23.32c0.18,0.52,0.46,1.57,0.86,1.35c0.28-0.17,0.18-0.98,0.18-1.51
			C201.36,158.93,201.36,148.75,201.36,138.57z"/>
		<path fill="#EEEADF" d="M320.84,139.03c0.04-3.3,0.18-6.62,0.11-9.9c-0.08-4.06-0.09-8.13-0.13-12.19
			c-0.02-2.58-0.05-5.16,0.15-7.75c0.2-2.63-0.14-5.29-0.14-7.94c-0.01-4.19,0.15-8.39,0.09-12.56c-0.08-5.18,0.01-10.36-0.15-15.54
			c-0.04-1.29,0.46-1.85,1.61-2.2c7.89-2.4,15.83-4.66,23.74-7.01c6.01-1.79,12.06-3.48,18.06-5.31c3.39-1.04,6.82-1.94,10.23-2.91
			c0.9-0.26,1.09,0.07,1.2,0.82c0.07,0.47,0.13,0.88,0.13,1.42c-0.04,2.91-0.04,5.91,0,8.84c0.06,4.18-0.05,8.36,0.08,12.53
			c0.15,4.82,0.03,9.64,0.03,14.46c0,1.74-0.05,3.47,0.01,5.21c0.04,1.03-0.38,1.55-1.35,1.77c-4.2,0.94-8.4,1.91-12.59,2.87
			c-1.19,0.27-2.39,0.53-3.56,0.86c-0.92,0.25-1.32-0.16-1.31-0.99c0.03-1.99-0.07-3.98,0.11-5.98c0.15-1.65-0.08-3.33-0.08-4.99
			c-0.01-2.82,0-5.64,0.04-8.45c0.02-1.11-0.25-1.39-1.28-1.16c-4.55,1.02-8.99,2.44-13.48,3.69c-1.09,0.3-1.51,0.82-1.52,2.01
			c-0.01,3.66-0.16,7.34-0.1,10.99c0.11,6.78,0.05,13.56,0.08,20.35c0.03,7.05,0.02,14.09,0.02,21.14c0,6.62-0.01,13.24-0.01,19.86
			c0,10.3,0,20.61,0,30.91c0,6.83,0,13.65,0,20.48c0,1.58,0.33,1.96,1.99,1.9c3.42-0.12,6.83-0.32,10.25-0.47
			c0.84-0.04,1.68,0.01,2.52,0c0.96-0.01,1.45-0.44,1.44-1.46c-0.01-3.55-0.01-7.1,0.04-10.65c0.07-5.5-0.28-11,0.1-16.5
			c0-0.04,0.01-0.08,0.01-0.12c-0.05-3.11-0.04-3.01,3.08-3.18c4.04-0.21,8.07-0.61,12.1-0.92c0.12-0.01,0.24-0.01,0.36-0.01
			c3.79,0.05,3.09-0.5,3.12,3.04c0.04,4.33,0,8.67,0,13c0,5.69,0.01,11.39,0,17.08c-0.01,5.21-0.01,10.41-0.05,15.62
			c-0.01,1.39-0.07,2.77-0.03,4.16c0.04,1.56-0.33,1.87-1.89,1.87c-2.51,0.01-5.03,0.13-7.54-0.03c-3.44-0.22-6.87,0.12-10.31,0.05
			c-3.89-0.08-7.78,0.09-11.67-0.05c-3.58-0.13-7.15,0.12-10.72,0.02c-3.73-0.11-7.47-0.04-11.2,0.04
			c-1.14,0.02-1.69-0.39-1.64-1.48c0.13-2.94-0.02-5.88,0.14-8.83c0.15-2.63-0.13-5.3-0.12-7.95c0.01-3.5,0.22-7.01,0.13-10.48
			c-0.11-4.22-0.11-8.45-0.13-12.67c-0.02-3.82,0.06-7.66,0.07-11.47c0.01-5.56-0.04-11.13-0.08-16.7
			c-0.02-2.61,0.03-5.22,0.03-7.83C320.84,151.9,320.84,145.46,320.84,139.03z"/>
		<path fill="#EEEADF" d="M120.38,46.22c0,2.68-0.03,5.35,0.02,8.03c0.01,0.85-0.2,1.19-1.13,1.24c-4.77,0.24-9.53,0.54-14.3,0.74
			c-3.46,0.15-6.91,0.33-10.37,0.47c-3.62,0.15-7.23,0.3-10.85,0.49c-2.78,0.14-5.56,0.3-8.34,0.43
			c-5.24,0.25-10.49,0.49-15.73,0.72c-0.78,0.04-1.15,0.41-1.15,1.2c0.01,5.27,0.01,10.54-0.01,15.81c0,0.73,0.33,0.9,0.95,0.85
			c2.18-0.18,4.36-0.34,6.53-0.54c2.05-0.19,4.09-0.46,6.14-0.66c4.27-0.4,8.55-0.59,12.81-1.16c2.63-0.35,5.29-0.49,7.93-0.77
			c2.68-0.28,5.36-0.57,8.03-0.93c1.53-0.21,1.98,0.09,1.99,1.62c0,5.11-0.01,10.23,0.01,15.34c0,0.96-0.34,1.45-1.33,1.61
			c-6.21,1.01-12.41,2.06-18.61,3.11c-3.63,0.61-7.24,1.36-10.88,1.85c-4.16,0.57-8.27,1.41-12.43,1.96
			c-0.84,0.11-1.15,0.44-1.14,1.3c0.04,2.82,0.14,5.64-0.02,8.45c-0.15,2.59,0.22,5.15,0.04,7.73c-0.04,0.62,0.07,0.97,0.87,0.78
			c8.08-1.98,16.16-3.93,24.25-5.87c7.12-1.71,14.25-3.37,21.38-5.07c4.78-1.14,9.55-2.28,14.31-3.46c0.86-0.21,1.08,0.07,1.08,0.85
			c-0.01,5.46-0.02,10.92,0.01,16.38c0.01,0.99-0.64,1.2-1.33,1.4c-4.51,1.32-9.03,2.6-13.54,3.93c-5.99,1.76-11.97,3.52-17.95,5.31
			c-5.63,1.69-11.22,3.51-16.87,5.09c-7.37,2.06-14.72,4.18-22.06,6.35c-3.18,0.94-6.35,1.9-9.52,2.88
			c-1.39,0.43-1.84,0.17-1.86-1.31c-0.03-2.48-0.01-4.95,0-7.43c0.01-5.71-0.08-11.41,0.07-17.11c0.07-2.61,0.04-5.24,0.01-7.84
			c-0.06-5.33-0.09-10.67-0.03-15.99c0.05-5.27-0.15-10.55,0.08-15.83c0.13-3.13-0.14-6.27-0.08-9.4c0.07-4.07,0.01-8.15,0.08-12.22
			c0.04-2.69-0.16-5.41-0.06-8.1c0.13-3.5-0.34-7,0.07-10.48c0.09-0.77,0.37-1.3,1.31-1.38c3.42-0.32,6.85-0.1,10.27-0.15
			c3.09-0.04,6.18-0.06,9.27,0.03c2.88,0.08,5.77-0.05,8.65,0.06c3.7,0.14,7.42,0.02,11.13-0.05c4.02-0.07,8.04,0.12,12.05,0.07
			c3.92-0.05,7.84-0.13,11.75-0.09c4.21,0.05,8.41-0.23,12.62,0.13c1.56,0.14,3.14-0.35,4.75,0.01c0.93,0.21,1.16,0.68,1.16,1.49
			c-0.01,2.71,0,5.43,0,8.14C120.4,46.22,120.39,46.22,120.38,46.22z"/>
		<path fill="#EEEADF" d="M37.32,225.48c0-3.9-0.07-7.81,0.02-11.71c0.12-5.04-0.11-10.08,0.03-15.12
			c0.15-5.32-0.04-10.66-0.07-15.99c-0.02-4.3-0.09-8.59,0.02-12.89c0.06-2.6-0.04-5.19,0.07-7.82c0.08-1.98-0.01-4-0.06-6.03
			c-0.02-0.81,0.15-1.16,0.96-1.42c5.2-1.65,10.42-3.25,15.67-4.71c0.04-0.01,0.08,0,0.12-0.01c2.77-0.75,2.77-0.75,3.69,1.95
			c3.7,10.94,7.58,21.82,11.54,32.67c0.19,0.51,0.42,1.01,0.63,1.52c0.43-0.41,0.39-1,0.54-1.5c1.92-6.34,3.82-12.69,5.74-19.03
			c2.35-7.77,4.72-15.53,7.03-23.32c0.23-0.77,0.62-1.17,1.3-1.37c5.82-1.66,11.64-3.29,17.46-4.96c0.62-0.18,0.73,0.13,0.9,0.6
			c0.35,1.02,0.2,2.06,0.21,3.08c0.03,3.41,0.14,6.82-0.03,10.22c-0.13,2.71-0.16,5.44-0.09,8.13c0.09,3.46,0.02,6.92,0.04,10.37
			c0.03,4.6,0.1,9.22,0,13.83c-0.07,3.68,0.03,7.39,0.07,11.09c0.05,4.57,0.02,9.14,0.02,13.71c0,4.59-0.01,9.18-0.01,13.77
			c0,4.62-0.01,9.25,0,13.87c0,0.91-0.51,1.33-1.34,1.31c-4.3-0.09-8.57,0.05-12.92-0.06c-0.82-0.02-1.66-0.02-2.49,0.06
			c-0.94,0.09-1.35-0.39-1.35-1.25c0.01-3.35,0.06-6.71,0.07-10.06c0-2.15-0.06-4.3-0.06-6.45c-0.01-8.46,0-16.93-0.02-25.39
			c0-0.31,0.03-0.83-0.26-0.91c-0.37-0.11-0.44,0.43-0.52,0.68c-2.14,6.92-4.48,13.78-6.73,20.67c-2.33,7.16-4.51,14.37-6.78,21.55
			c-0.13,0.42-0.23,1.07-0.74,1.12c-0.59,0.06-0.64-0.59-0.79-1.02c-3.08-8.61-5.95-17.28-8.67-26.01
			c-1.26-4.05-2.58-8.09-3.88-12.13c-0.1-0.3-0.2-0.6-0.34-0.88c-0.13-0.26-0.09-0.7-0.52-0.64c-0.08,0.01-0.13,0.49-0.13,0.76
			c-0.01,5.89,0,11.77,0,17.66c0,4.96,0.07,9.92-0.05,14.88c-0.05,2.06,0.15,4.11,0.03,6.17c-0.05,0.94-0.47,1.28-1.33,1.28
			c-5.4-0.12-10.56,0-15.84,0c-0.88,0-1.17-0.44-1.17-1.27c0.02-2.99,0.01-5.98,0.01-8.97C37.3,225.48,37.31,225.48,37.32,225.48z"
			/>
		<path fill="#EEEADF" d="M153.98,73.51c0,5.83,0,11.66,0,17.49c0,1.23,0.48,1.61,1.72,1.31c6.19-1.45,12.37-2.92,18.56-4.38
			c6.39-1.51,12.77-3.05,19.17-4.52c1.08-0.25,1.47-0.78,1.46-1.8c-0.01-1.92,0.02-3.83-0.01-5.75c-0.01-0.83,0.33-1.23,1.15-1.37
			c4.75-0.79,9.5-1.6,14.24-2.41c0.7-0.12,1.4-0.29,2.1-0.43c0.97-0.19,1.58,0.12,1.58,1.2c0,6.14,0.01,12.29-0.03,18.43
			c0,0.66-0.4,1.12-1.11,1.37c-2.56,0.94-5.2,1.57-7.8,2.36c-4.04,1.22-8.08,2.46-12.13,3.65c-7.74,2.26-15.49,4.47-23.22,6.75
			c-11.28,3.31-22.55,6.66-33.83,10c-0.42,0.12-0.84,0.22-1.26,0.33c-1.25,0.31-1.81-0.11-1.8-1.41c0.01-5.14,0.07-10.29,0.06-15.43
			c-0.01-8.02-0.06-16.05-0.07-24.07c-0.01-5.11,0.01-10.22,0.01-15.33c0-7,0-14.01,0-21.01c0-1.32,0.52-2,1.91-2.06
			c1.59-0.07,3.18-0.01,4.78,0.06c2.13,0.1,4.27-0.02,6.41-0.01c2.73,0.01,5.45-0.13,8.18-0.01c1.74,0.07,3.48-0.07,5.22-0.07
			c4.2-0.01,8.41-0.09,12.6,0.04c2.79,0.09,5.57-0.23,8.35-0.03c2.97,0.21,5.94-0.15,8.9,0.02c3.68,0.21,7.36,0,11.03,0.07
			c4,0.07,8.02,0.06,12.03-0.07c1.57-0.05,2.01,0.37,2.01,1.94c0.01,5.79-0.02,11.57,0.03,17.36c0.01,1.13-0.62,1.49-1.51,1.61
			c-1.53,0.22-3.06,0.4-4.6,0.51c-3.92,0.29-7.82,0.7-11.71,1.18c-1.33,0.16-1.73-0.15-1.74-1.53c-0.01-1.2-0.01-2.4-0.01-3.59
			c0.01-1.02-0.45-1.55-1.51-1.56c-3.95-0.04-7.87,0.39-11.79,0.68c-0.91,0.07-1.83,0.04-2.75,0.04c-3.55,0.01-7.07,0.48-10.61,0.59
			c-2.35,0.07-4.71,0.26-7.07,0.21c-1.97-0.04-3.95,0.23-5.93,0.42c-0.97,0.09-0.99,0.89-0.99,1.63c0,5.51,0,11.02,0,16.52
			C153.99,72.79,153.99,73.15,153.98,73.51z"/>
		<path fill="#EEEADF" d="M107.97,233.11c0.41-4.24,0.81-8.48,1.24-12.71c0.63-6.29,1.29-12.58,1.92-18.88
			c0.58-5.81,1.1-11.63,1.74-17.44c0.66-5.93,1.36-11.86,1.91-17.81c0.57-6.18,1.24-12.34,1.86-18.52
			c0.52-5.18,1.03-10.37,1.5-15.55c0.08-0.85,0.45-1.31,1.22-1.54c6.28-1.85,12.56-3.71,18.84-5.56c2.46-0.73,4.93-1.42,7.37-2.23
			c0.91-0.3,1.15,0,1.22,0.82c0.4,4.74,0.81,9.48,1.22,14.21c0.32,3.76,0.59,7.52,0.95,11.27c0.43,4.46,0.95,8.9,1.39,13.36
			c0.29,3,0.47,6.02,0.75,9.02c0.4,4.31,0.65,8.63,1.15,12.94c0.36,3.12,0.5,6.27,0.78,9.4c0.28,3.12,0.7,6.22,0.9,9.34
			c0.12,1.94,0.4,3.86,0.54,5.8c0.29,3.83,0.62,7.66,0.94,11.49c0.24,2.88,0.48,5.77,0.74,8.65c0.16,1.77,0.29,3.55,0.6,5.3
			c0.17,0.97-0.13,1.28-0.99,1.26c-1.92-0.06-3.86-0.33-5.76-0.16c-3.07,0.28-6.14,0.07-9.21,0.16c-1.7,0.05-1.67-0.07-1.82-1.72
			c-0.31-3.43-0.44-6.88-0.9-10.3c-0.29-2.2-0.34-4.43-0.53-6.64c-0.23-2.76-0.5-5.52-0.72-8.29c-0.05-0.58-0.38-0.64-0.81-0.6
			c-2.57,0.23-5.13,0.48-7.7,0.71c-0.51,0.05-0.66,0.36-0.7,0.8c-0.24,2.82-0.61,5.62-0.78,8.45c-0.22,3.81-0.63,7.61-1.01,11.41
			c-0.17,1.7-0.08,3.42-0.39,5.12c-0.13,0.71-0.39,1.12-1.14,1.06c-3.08-0.22-6.17,0.07-9.26-0.13c-1.78-0.11-3.62,0-5.43,0.11
			c-1.65,0.1-1.65,0.02-1.59-1.63c0.01-0.32,0-0.64,0-0.96C108.01,233.11,107.99,233.11,107.97,233.11z M129.29,189.52
			c0,0.52,0.02,1.04,0,1.56c-0.02,0.54,0.25,0.71,0.74,0.66c1.7-0.16,3.4-0.34,5.1-0.48c0.62-0.05,0.56-0.51,0.51-0.87
			c-0.28-2.05-0.34-4.11-0.5-6.16c-0.42-5.66-0.94-11.31-1.4-16.96c-0.34-4.2-0.65-8.4-0.97-12.6c-0.02-0.31-0.01-0.84-0.34-0.8
			c-0.19,0.02-0.25,0.47-0.28,0.74c-0.05,0.43-0.09,0.82-0.15,1.33c-0.37,3.88-0.67,7.83-1.07,11.74c-0.23,2.29-0.39,4.58-0.59,6.88
			C129.88,179.53,129.73,184.53,129.29,189.52z"/>
		<path fill="#EEEADF" d="M231.22,36.4c3.1,0.15,6.21,0.14,9.3,0.08c3.69-0.07,7.37,0.03,11.06-0.01c2.32-0.03,4.66-0.03,6.99,0.05
			c2.66,0.09,5.36-0.03,8.04-0.06c3.87-0.05,7.75-0.16,11.62,0c2.98,0.12,5.95-0.17,8.94,0.07c2.18,0.18,4.42-0.13,6.64-0.11
			c3.68,0.03,7.34,0.08,11.02,0.12c0.39,0,0.87-0.04,1.25-0.02c1.87,0.11,2.37,0.77,2.31,2.67c-0.07,2.48,0,4.96-0.09,7.46
			c-0.03,1.66,0.11,3.38,0.15,5.08c0.05,2.49,0,4.98,0,7.47c0,1.28-0.02,2.56,0.03,3.83c0.05,1.25-0.59,1.92-1.7,2.26
			c-6.12,1.85-12.24,3.72-18.37,5.52c-9.37,2.76-18.76,5.45-28.13,8.21c-7.28,2.15-14.53,4.39-21.81,6.53
			c-3.4,1.01-6.84,1.9-10.27,2.84c-1.24,0.34-1.9-0.11-1.86-1.33c0.13-4.06,0-8.12,0.07-12.17c0.03-2.27,0.03-4.57-0.01-6.85
			c-0.05-2.44-0.1-4.91,0-7.36c0.05-1.44-0.15-2.94-0.06-4.39c0.23-3.12,0.02-6.18,0.06-9.26c0.03-2.57,0.11-5.12-0.04-7.77
			c-0.14-2.15,0.47-2.81,2.62-2.84C229.71,36.39,230.47,36.4,231.22,36.4z M247.53,59.79c0,2.71,0.05,5.43-0.02,8.14
			c-0.03,1.23,0.56,1.47,1.55,1.27c2.74-0.55,5.49-1.07,8.21-1.72c9.79-2.34,19.56-4.76,29.36-7.07c1.3-0.31,1.67-0.94,1.66-2.14
			c-0.03-2.89,0.02-5.71,0.01-8.57c0.01-1.37-0.26-1.69-1.65-1.67c-1.03,0.01-2.06,0.15-3.09,0.2c-2.5,0.11-5.01,0.16-7.51,0.3
			c-5.44,0.29-10.87,0.71-16.31,0.9c-2.35,0.08-4.69,0.24-7.04,0.34c-1.29,0.06-2.61,0.11-3.91,0.36c-0.99,0.18-1.25,0.63-1.25,1.52
			C247.54,54.36,247.53,57.08,247.53,59.79z"/>
		<path fill="#EEEADF" d="M247.05,95.76c-0.1,3.62-0.18,7.26-0.12,10.87c0.08,5.01-0.05,10.02,0.09,15.03
			c0.12,4.32,0.03,8.65,0.04,12.97c0,3.14,0.1,6.27-0.02,9.4c-0.14,3.6,0.19,7.2-0.01,10.79c-0.17,3.12,0.03,6.24-0.1,9.37
			c-0.12,2.8,0.12,5.65,0.13,8.47c0.01,3.67-0.01,7.34-0.01,11.01c0,4.73-0.02,9.46,0.04,14.2c0.01,1.13-0.4,1.39-1.46,1.44
			c-4.71,0.25-9.42,0.61-14.13,0.91c-0.72,0.05-1.44-0.02-2.16,0.03c-0.88,0.06-1.16-0.43-1.09-1.16c0.2-2.33-0.12-4.66-0.01-6.99
			c0.22-4.44,0.12-8.88,0.07-13.32c-0.11-9.42,0-18.84-0.05-28.26c-0.03-4.37,0.32-8.75,0.12-13.11c-0.16-3.45-0.07-6.89-0.1-10.33
			c-0.05-5.3-0.1-10.6,0.02-15.9c0.09-3.89-0.03-7.79-0.06-11.68c0-0.6-0.07-1.09,0.79-1.32c5.56-1.54,11.11-3.12,16.64-4.77
			c1.28-0.38,1.49,0.08,1.4,1.15C247.02,94.96,247.05,95.36,247.05,95.76z"/>
		<path fill="#EEEADF" d="M325.55,36.41c2.78,0,5.56-0.06,8.33,0.01c3.98,0.11,7.95,0.01,11.93,0.07c2.61,0.04,5.25-0.06,7.86-0.02
			c3.19,0.04,6.4,0.14,9.58,0.04c4.84-0.15,9.68,0.11,14.52-0.04c2.98-0.1,6,0.07,8.98,0.06c4.68-0.02,9.34,0,14.05-0.08
			c0.32-0.01,0.64,0,0.96,0c0.25,0,0.56,0,0.6,0.25c0.04,0.2-0.3,0.27-0.51,0.33c-2.68,0.79-5.38,1.53-8.05,2.36
			c-5.5,1.71-11.08,3.18-16.57,4.93c-5.04,1.6-10.18,2.86-15.22,4.49c-4.33,1.4-8.71,2.58-13.05,3.91
			c-6.72,2.04-13.48,3.95-20.22,5.93c-2.19,0.64-4.38,1.3-6.57,1.97c-0.88,0.27-1.38,0.12-1.37-0.94c0.02-7.09,0-14.18,0.02-21.27
			c0-1.27,0.59-1.9,1.86-1.98C323.63,36.36,324.59,36.41,325.55,36.41z"/>
		<path fill="#EEEADF" d="M246.81,224.4c0,3.31-0.03,6.63,0.02,9.94c0.02,1-0.21,1.42-1.32,1.41c-3.85-0.06-7.7,0.09-11.54-0.08
			c-1.51-0.07-2.99,0.15-4.49,0.09c-1.02-0.03-1.28-0.37-1.27-1.34c0.03-6.43,0.03-12.86,0-19.29c0-0.79,0.17-1.09,1.04-1.12
			c4.73-0.19,9.45-0.44,14.17-0.72c0.74-0.04,1.48-0.2,2.24-0.24c0.9-0.05,1.18,0.28,1.17,1.16
			C246.78,217.61,246.81,221,246.81,224.4z"/>
	</g>
</g>
</svg>
